<svg xmlns="http://www.w3.org/2000/svg" width="68" height="68" viewBox="0 0 68 68"><defs><mask id="4r3sb" width="2.18" height="2.18" x="-1.09" y="-1.09"><path fill="#fff" d="M9.3 7.3h49.4v49.4H9.3z"/><path d="M34 11c11.598 0 21 9.402 21 21s-9.402 21-21 21-21-9.402-21-21 9.402-21 21-21z"/></mask><filter id="4r3sa" width="94" height="96" x="-13" y="-15" filterUnits="userSpaceOnUse"><feOffset dy="2" in="SourceGraphic" result="FeOffset1023Out"/><feGaussianBlur in="FeOffset1023Out" result="FeGaussianBlur1024Out" stdDeviation="4.92 4.92"/></filter></defs><g><g clip-path="url(#clip-2737)" opacity="-1"><g filter="url(#4r3sa)"><path fill="none" stroke="#000" stroke-opacity=".13" stroke-width="7.4" d="M34 11c11.598 0 21 9.402 21 21s-9.402 21-21 21-21-9.402-21-21 9.402-21 21-21z" mask="url(&quot;#4r3sb&quot;)"/><path fill-opacity=".13" d="M34 11c11.598 0 21 9.402 21 21s-9.402 21-21 21-21-9.402-21-21 9.402-21 21-21z"/></g><path fill="#fff" d="M34 11c11.598 0 21 9.402 21 21s-9.402 21-21 21-21-9.402-21-21 9.402-21 21-21z"/></g></g></svg>